<svg width="50" height="50" viewBox="0 0 50 50" fill="none" xmlns="http://www.w3.org/2000/svg">
<g clip-path="url(#clip0_4_9)">
<path d="M45.1172 0.976562H4.88281C2.7256 0.976562 0.976562 2.7256 0.976562 4.88281V45.1172C0.976562 47.2744 2.7256 49.0234 4.88281 49.0234H45.1172C47.2744 49.0234 49.0234 47.2744 49.0234 45.1172V4.88281C49.0234 2.7256 47.2744 0.976562 45.1172 0.976562Z" fill="#7D97F4"/>
<path d="M25 11.3281C33.63 11.3281 40.625 18.3231 40.625 26.9531C40.625 34.0488 35.8955 40.0402 29.4159 41.9453C29.0958 41.5977 28.9093 41.1346 28.9062 40.625V36.7363C28.9093 34.9483 28.2013 34.4765 27.6844 33.6876C35.8498 32.4688 36.1065 24.9611 33.255 21.5839C33.2108 21.5332 33.1711 21.4367 33.1894 21.3818C33.6269 20.0596 33.5705 17.1474 32.5695 17.1932C31.1981 17.2569 30.1044 18.0294 28.8319 18.7862C28.7354 18.8427 28.6583 18.8652 28.5458 18.8351C27.3758 18.5177 26.1932 18.3456 25 18.3311C23.8068 18.3456 22.6242 18.5177 21.4542 18.8351C21.3417 18.8652 21.2646 18.8427 21.1681 18.7862C19.8956 18.0294 18.8019 17.2569 17.4305 17.1932C16.4295 17.1474 16.3731 20.0596 16.8106 21.3818C16.8289 21.4367 16.7892 21.5332 16.745 21.5839C13.8935 24.9611 14.1502 32.4688 22.3156 33.6876C21.7987 34.4765 21.0907 34.9483 21.0938 36.7363V40.625C21.0907 41.1346 20.9042 41.5977 20.5841 41.9453C14.1045 40.0402 9.375 34.0488 9.375 26.9531C9.375 18.3231 16.37 11.3281 25 11.3281Z" fill="#F0F0FA"/>
<path d="M37.6953 5.17578C37.6953 5.71518 37.2581 6.15234 36.7188 6.15234C36.1794 6.15234 35.7422 5.71518 35.7422 5.17578C35.7422 4.63638 36.1794 4.19922 36.7188 4.19922C37.2581 4.19922 37.6953 4.63638 37.6953 5.17578Z" fill="black"/>
<path d="M25 10.3516C15.8459 10.3516 8.39844 17.799 8.39844 26.9531C8.39844 36.1958 15.9061 43.5547 25 43.5547C34.1137 43.5547 41.6016 36.1828 41.6016 26.9531C41.6016 17.799 34.1541 10.3516 25 10.3516ZM21.9929 41.291C22.0425 41.0755 22.0692 40.8524 22.0703 40.625V36.7348C22.068 35.3107 22.5643 35.0899 23.1323 34.2224C23.3147 33.9439 23.3425 33.5918 23.2067 33.2878C23.0705 32.9842 22.789 32.7705 22.4598 32.7217C18.586 32.1434 17.0654 30.1464 16.4719 28.5732C15.6815 26.4774 16.0999 23.864 17.4892 22.2164C17.7006 21.9681 17.8898 21.5218 17.738 21.0751C17.4416 20.1797 17.4877 18.7496 17.6723 18.1965C18.5139 18.3197 19.3001 18.7965 20.1958 19.3401C20.7142 19.6552 21.0827 19.9459 21.7098 19.7773C22.8058 19.4801 23.9128 19.3222 25 19.3077C26.0876 19.3218 27.1946 19.4801 28.2921 19.7777C28.9154 19.9459 29.2961 19.6487 29.8042 19.3401C30.7003 18.7965 31.4865 18.3193 32.328 18.1965C32.5127 18.7492 32.5588 20.179 32.2651 21.067C32.1106 21.5214 32.2994 21.9681 32.5108 22.2164C33.9005 23.8636 34.3189 26.4774 33.5281 28.5732C32.935 30.1464 31.4144 32.1434 27.5406 32.7213C27.2114 32.7705 26.9299 32.9842 26.7937 33.2878C26.6575 33.5918 26.6853 33.9439 26.8677 34.2224C27.4345 35.088 27.9324 35.3088 27.9301 36.7363V40.6303C27.9312 40.8554 27.9575 41.077 28.0067 41.291C27.0229 41.4963 26.0162 41.6016 25 41.6016C23.9838 41.6016 22.9767 41.4963 21.9929 41.291ZM29.8935 40.7635C29.8874 40.7181 29.8832 40.6723 29.8828 40.625V36.7378C29.8847 35.6171 29.6383 34.8881 29.3331 34.3414C32.2968 33.5403 34.409 31.7722 35.3554 29.2625C36.3552 26.6117 35.9016 23.4428 34.2373 21.249C34.5406 19.9142 34.5318 17.8062 33.8051 16.8476C33.4801 16.4185 33.0261 16.1961 32.5241 16.2178C30.9971 16.2884 29.8203 17.0506 28.5385 17.8234C27.3655 17.5266 26.1806 17.3691 25.0118 17.3546C25.0038 17.3542 24.9962 17.3542 24.9882 17.3546C23.819 17.3687 22.6334 17.5266 21.4615 17.8234C20.1897 17.0567 19.0094 16.2888 17.4755 16.2178C16.9758 16.1949 16.5203 16.4185 16.1949 16.8476C15.4694 17.8047 15.4594 19.9078 15.7631 21.2482C14.0987 23.4421 13.6448 26.6117 14.6446 29.2625C15.591 31.7722 17.7032 33.5403 20.6669 34.341C20.4258 34.7729 20.2221 35.3191 20.1477 36.0809C18.94 36.5032 17.9623 36.2247 17.2985 35.1063C16.5222 33.8005 15.2069 32.7473 13.6993 32.8773C13.1619 32.9239 12.764 33.3973 12.8105 33.9344C12.8567 34.4719 13.3316 34.8705 13.8676 34.8236C14.5657 34.763 15.2542 35.49 15.6193 36.1038C16.663 37.8628 18.3537 38.4907 20.1172 38.1134V40.6193C20.1168 40.6685 20.1126 40.7162 20.1061 40.7631C14.325 38.7119 10.3516 33.144 10.3516 26.9531C10.3516 18.8759 16.9228 12.3047 25 12.3047C33.0772 12.3047 39.6484 18.8759 39.6484 26.9531C39.6484 33.144 35.675 38.7119 29.8935 40.7635Z" fill="black"/>
<path d="M45.1172 0H4.88281C2.1904 0 0 2.1904 0 4.88281V45.1172C0 47.8096 2.1904 50 4.88281 50H45.1172C47.8096 50 50 47.8096 50 45.1172V4.88281C50 2.1904 47.8096 0 45.1172 0ZM48.0469 45.1172C48.0469 46.7327 46.7327 48.0469 45.1172 48.0469H4.88281C3.26729 48.0469 1.95312 46.7327 1.95312 45.1172V4.88281C1.95312 3.26729 3.26729 1.95312 4.88281 1.95312H45.1172C46.7327 1.95312 48.0469 3.26729 48.0469 4.88281V45.1172Z" fill="black"/>
<path d="M13.2812 6.15234H32.8125C33.3519 6.15234 33.7891 5.71518 33.7891 5.17578C33.7891 4.63638 33.3519 4.19922 32.8125 4.19922H13.2812C12.7419 4.19922 12.3047 4.63638 12.3047 5.17578C12.3047 5.71518 12.7419 6.15234 13.2812 6.15234Z" fill="black"/>
</g>
<defs>
<clipPath id="clip0_4_9">
<rect width="50" height="50" fill="white"/>
</clipPath>
</defs>
</svg>
