<svg width="50" height="50" viewBox="0 0 50 50" fill="none" xmlns="http://www.w3.org/2000/svg">
<g clip-path="url(#clip0_4_2)">
<path d="M49.0234 4.88281V45.1172C49.0234 47.2744 47.2744 49.0234 45.1172 49.0234H4.88281C2.7256 49.0234 0.976562 47.2744 0.976562 45.1172V4.88281C0.976562 2.7256 2.7256 0.976562 4.88281 0.976562H45.1172C47.2744 0.976562 49.0234 2.7256 49.0234 4.88281Z" fill="#7D97F4"/>
<path d="M40.625 36.7187H35.7421C35.25 36.7264 34.333 36.586 33.8943 36.3632C32.2567 35.5282 31.5887 33.7734 30.1006 32.6649C29.0828 31.9061 28.2383 32.3055 27.6729 33.3759C27.2247 34.2262 26.9531 34.8736 26.9531 36.7187C17.5205 36.7187 13.5204 29.5547 9.49817 19.1406H15.3369C16.0587 20.9999 18.412 28.0174 20.42 28.0174C22.2305 28.0174 22.1805 23.4543 21.9383 21.7361C21.7628 20.496 21.4813 19.6884 20.3048 19.2928C21.1093 18.5821 25.7206 18.8526 26.9531 19.1406C26.9531 19.1406 27.0351 19.1601 27.1171 19.1788C27.1797 19.4843 27.2422 19.7899 27.2422 19.7899C27.6084 21.5927 26.4003 26.741 28.0235 27.8183L28.4637 27.953C30.3924 28.0224 33.5174 21.2833 34.0076 19.6289C35.8917 19.619 39.7686 19.6358 40.5811 19.6289C40.9198 21.3146 36.8125 25.8533 35.6884 27.8271C35.2558 28.5873 35.1589 29.3159 35.7696 30.1258C36.6672 31.2664 40.5246 34.2903 40.625 36.7187Z" fill="#F0F0FA"/>
<path d="M37.6953 5.17578C37.6953 5.71518 37.2581 6.15234 36.7188 6.15234C36.1794 6.15234 35.7422 5.71518 35.7422 5.17578C35.7422 4.63638 36.1794 4.19922 36.7188 4.19922C37.2581 4.19922 37.6953 4.63638 37.6953 5.17578Z" fill="black"/>
<path d="M36.5433 29.5303C36.2015 29.0714 36.2755 28.7704 36.5372 28.3104C36.8637 27.737 37.5138 26.8616 38.2019 25.935C40.4091 22.9626 41.8335 20.9045 41.5386 19.4366C41.4467 18.98 41.0458 18.6523 40.5812 18.6523C40.5785 18.6523 40.5754 18.6523 40.5728 18.6523C39.8922 18.6584 35.7754 18.6535 34.0027 18.6623C33.5724 18.6642 33.194 18.9388 33.0715 19.3516C32.8583 20.071 32.0255 22.0165 31.0162 23.7976C29.7074 26.107 28.8498 26.8307 28.5477 26.9577L28.5 26.9428C28.4012 26.8208 28.2295 26.4912 28.159 25.6378C28.0853 24.7452 28.1506 23.6656 28.2139 22.6215C28.2879 21.4008 28.352 20.3465 28.199 19.5946C28.0937 19.3195 28.1738 18.4158 27.3323 18.2262C26.1734 17.9649 24.6006 17.8776 23.4791 17.8658C20.8229 17.8394 20.0413 18.2228 19.6583 18.5612C19.397 18.792 19.2784 19.1448 19.3478 19.4866C19.4168 19.8284 19.6629 20.1077 19.9936 20.2187C20.5891 20.4189 20.8016 20.673 20.9717 21.8727C21.0797 22.6383 21.1361 23.9239 21.019 25.071C20.8542 26.6891 20.4617 27.013 20.4231 27.0393C20.3396 27.0119 19.6873 26.7288 18.5093 24.3385C17.4957 22.2824 16.6451 19.812 16.2476 18.7874C16.1019 18.4116 15.7402 18.1641 15.337 18.1641H9.49824C9.17628 18.1641 8.87492 18.3228 8.69257 18.5883C8.51061 18.8538 8.47094 19.1921 8.58729 19.4927C10.4164 24.2291 12.5153 29.0802 15.4591 32.4749C18.5051 35.9879 22.2649 37.6953 26.9531 37.6953C27.4925 37.6953 27.9297 37.2581 27.9297 36.7188C27.9297 35.0342 28.1666 34.5341 28.5362 33.8322C28.7411 33.4446 28.9414 33.2783 29.0505 33.2539C29.1493 33.231 29.3236 33.3038 29.5174 33.4484C30.0728 33.8619 30.5138 34.4063 30.9803 34.9823C31.6529 35.8124 32.3483 36.6711 33.4526 37.2341C34.0546 37.5397 35.1311 37.6946 35.7491 37.6854H40.625C41.1801 37.6854 41.6237 37.233 41.6008 36.6783C41.4814 33.7917 37.4359 30.6522 36.5433 29.5303ZM35.7422 35.7422C35.7369 35.7422 35.7319 35.7422 35.7266 35.7422C35.3192 35.7521 34.5791 35.6159 34.338 35.4931C33.6048 35.1192 33.0918 34.486 32.4978 33.7532C31.976 33.1085 31.4362 32.4421 30.6843 31.8821C29.2992 30.8495 27.731 31.1752 26.809 32.9208C26.2924 33.9005 26.0922 34.5459 26.009 35.7162C22.3191 35.5087 19.4164 34.0576 16.9346 31.1951C14.4535 28.3337 12.571 24.2493 10.9291 20.1172H14.6614C16.1209 24.0482 18.0142 28.9944 20.4201 28.9944C21.0114 28.9944 21.5416 28.7437 21.954 28.2692C23.5375 26.4469 22.9122 21.648 22.9054 21.5992C22.8218 21.0083 22.702 20.3873 22.4117 19.8338C23.6519 19.7849 25.3147 19.8654 26.2902 20.0104C26.3844 20.5189 26.3233 21.5275 26.2642 22.5033C26.1204 24.8791 25.9716 27.3315 27.2461 28.4504C27.2843 28.484 27.9919 28.9135 28.4287 28.9291C29.2229 28.9608 30.5214 28.5736 32.6218 24.9245C33.4782 23.4364 34.2739 21.7228 34.7023 20.6032C36.1134 20.6005 38.0905 20.5959 39.3887 20.5971C38.8161 21.8613 37.55 23.5371 36.6337 24.7707C35.878 25.7885 35.2253 26.6674 34.84 27.3441C34.1233 28.603 34.2438 29.7241 34.99 30.7137C34.9938 30.7194 34.998 30.7247 35.0022 30.7301C35.9287 31.9073 38.3339 33.7326 39.336 35.7422H35.7422Z" fill="black"/>
<path d="M45.1172 0H4.88281C2.1904 0 0 2.1904 0 4.88281V45.1172C0 47.8096 2.1904 50 4.88281 50H45.1172C47.8096 50 50 47.8096 50 45.1172V4.88281C50 2.1904 47.8096 0 45.1172 0ZM48.0469 45.1172C48.0469 46.7327 46.7327 48.0469 45.1172 48.0469H4.88281C3.26729 48.0469 1.95312 46.7327 1.95312 45.1172V4.88281C1.95312 3.26729 3.26729 1.95312 4.88281 1.95312H45.1172C46.7327 1.95312 48.0469 3.26729 48.0469 4.88281V45.1172Z" fill="black"/>
<path d="M13.2812 6.15234H32.8125C33.3519 6.15234 33.7891 5.71518 33.7891 5.17578C33.7891 4.63638 33.3519 4.19922 32.8125 4.19922H13.2812C12.7419 4.19922 12.3047 4.63638 12.3047 5.17578C12.3047 5.71518 12.7419 6.15234 13.2812 6.15234Z" fill="black"/>
</g>
<defs>
<clipPath id="clip0_4_2">
<rect width="50" height="50" fill="white"/>
</clipPath>
</defs>
</svg>
