<svg width="200" height="200" viewBox="0 0 200 200" fill="none" xmlns="http://www.w3.org/2000/svg">
<path d="M116.635 99.9998L196.55 20.0846C201.15 15.4847 201.15 8.04976 196.55 3.4499C191.95 -1.14997 184.515 -1.14997 179.915 3.4499L100 83.3651L20.0846 3.4499C15.4847 -1.14997 8.04976 -1.14997 3.4499 3.4499C-1.14997 8.04976 -1.14997 15.4847 3.4499 20.0846L83.3651 99.9998L3.4499 179.915C-1.14997 184.515 -1.14997 191.95 3.4499 196.55C5.74397 198.844 8.7556 199.996 11.7672 199.996C14.7789 199.996 17.7905 198.843 20.0846 196.55L99.9998 116.634L179.915 196.55C182.209 198.844 185.221 199.996 188.232 199.996C191.244 199.996 194.256 198.843 196.55 196.55C201.15 191.95 201.15 184.515 196.55 179.915L116.635 99.9998Z" fill="url(#paint0_linear_8_3)"/>
<defs>
<linearGradient id="paint0_linear_8_3" x1="99.9945" y1="6.73727" x2="99.9945" y2="200.734" gradientUnits="userSpaceOnUse">
<stop stop-color="#4E8FD4"/>
<stop offset="1" stop-color="#7D97F4"/>
</linearGradient>
</defs>
</svg>
